<svg xmlns="http://www.w3.org/2000/svg" width="1600" height="900" viewBox="0 0 1600 900"><defs>
  <marker id="arr" viewBox="0 0 10 10" refX="9" refY="5" markerWidth="8" markerHeight="8" orient="auto-start-reverse"><path d="M0,0 L10,5 L0,10 z" fill="#64748B"/></marker>
  <marker id="arrT" viewBox="0 0 10 10" refX="9" refY="5" markerWidth="8" markerHeight="8" orient="auto-start-reverse"><path d="M0,0 L10,5 L0,10 z" fill="#0F766E"/></marker>
  <marker id="open" viewBox="0 0 10 10" refX="9" refY="5" markerWidth="9" markerHeight="9" orient="auto-start-reverse"><path d="M0,0 L10,5 L0,10" fill="none" stroke="#64748B" stroke-width="1.5"/></marker>
  <marker id="tri" viewBox="0 0 12 12" refX="11" refY="6" markerWidth="12" markerHeight="12" orient="auto"><path d="M0,0 L12,6 L0,12 z" fill="#FFFFFF" stroke="#64748B" stroke-width="1.5"/></marker>
  <marker id="dia" viewBox="0 0 14 10" refX="1" refY="5" markerWidth="14" markerHeight="10" orient="auto-start-reverse"><path d="M1,5 L7,1 L13,5 L7,9 z" fill="#64748B"/></marker>
</defs><rect width="1600" height="900" fill="#FFFFFF"/><rect x="380" y="20" width="840" height="850" rx="16" fill="#F1F5F9" stroke="#475569" stroke-width="2"/><text x="800" y="52" text-anchor="middle" font-family='Helvetica, Arial, sans-serif' font-size="18" font-weight="700"  fill="#475569">OpsPilot</text><line x1="200" y1="200" x2="500" y2="100" stroke="#64748B" stroke-width="1.5"/><line x1="200" y1="200" x2="500" y2="170" stroke="#64748B" stroke-width="1.5"/><line x1="200" y1="200" x2="500" y2="240" stroke="#64748B" stroke-width="1.5"/><line x1="200" y1="200" x2="500" y2="310" stroke="#64748B" stroke-width="1.5"/><line x1="200" y1="200" x2="500" y2="380" stroke="#64748B" stroke-width="1.5"/><line x1="200" y1="200" x2="500" y2="450" stroke="#64748B" stroke-width="1.5"/><line x1="200" y1="200" x2="500" y2="520" stroke="#64748B" stroke-width="1.5"/><line x1="200" y1="200" x2="500" y2="590" stroke="#64748B" stroke-width="1.5"/><line x1="200" y1="560" x2="500" y2="100" stroke="#64748B" stroke-width="1.5"/><line x1="200" y1="560" x2="500" y2="170" stroke="#64748B" stroke-width="1.5"/><line x1="200" y1="560" x2="500" y2="240" stroke="#64748B" stroke-width="1.5"/><line x1="200" y1="560" x2="500" y2="380" stroke="#64748B" stroke-width="1.5"/><line x1="1400" y1="700" x2="1100" y2="660" stroke="#0F766E" stroke-width="1.5"/><line x1="1400" y1="700" x2="1100" y2="730" stroke="#0F766E" stroke-width="1.5"/><line x1="1400" y1="700" x2="1100" y2="800" stroke="#0F766E" stroke-width="1.5"/><ellipse cx="800" cy="100" rx="300" ry="27" fill="#FFFFFF" stroke="#1F3A5F" stroke-width="2"/><text x="800" y="105" text-anchor="middle" font-family='Helvetica, Arial, sans-serif' font-size="16" font-weight="400"  fill="#0F172A">UC-01 View morning dashboard &amp; brief</text><ellipse cx="800" cy="170" rx="300" ry="27" fill="#FFFFFF" stroke="#1F3A5F" stroke-width="2"/><text x="800" y="175" text-anchor="middle" font-family='Helvetica, Arial, sans-serif' font-size="16" font-weight="400"  fill="#0F172A">UC-02 Drill into an anomaly</text><ellipse cx="800" cy="240" rx="300" ry="27" fill="#FFFFFF" stroke="#1F3A5F" stroke-width="2"/><text x="800" y="245" text-anchor="middle" font-family='Helvetica, Arial, sans-serif' font-size="16" font-weight="400"  fill="#0F172A">UC-03 Manage investigation tasks</text><ellipse cx="800" cy="310" rx="300" ry="27" fill="#FFFFFF" stroke="#1F3A5F" stroke-width="2"/><text x="800" y="315" text-anchor="middle" font-family='Helvetica, Arial, sans-serif' font-size="16" font-weight="400"  fill="#0F172A">UC-04 View tomorrow outlook</text><ellipse cx="800" cy="380" rx="300" ry="27" fill="#FFFFFF" stroke="#1F3A5F" stroke-width="2"/><text x="800" y="385" text-anchor="middle" font-family='Helvetica, Arial, sans-serif' font-size="16" font-weight="400"  fill="#0F172A">UC-05 Ask OpsPilot a question</text><ellipse cx="800" cy="450" rx="300" ry="27" fill="#FFFFFF" stroke="#1F3A5F" stroke-width="2"/><text x="800" y="455" text-anchor="middle" font-family='Helvetica, Arial, sans-serif' font-size="16" font-weight="400"  fill="#0F172A">UC-06 Browse brief archive</text><ellipse cx="800" cy="520" rx="300" ry="27" fill="#FFFFFF" stroke="#1F3A5F" stroke-width="2"/><text x="800" y="525" text-anchor="middle" font-family='Helvetica, Arial, sans-serif' font-size="16" font-weight="400"  fill="#0F172A">UC-07 Configure targets &amp; thresholds</text><ellipse cx="800" cy="590" rx="300" ry="27" fill="#FFFFFF" stroke="#1F3A5F" stroke-width="2"/><text x="800" y="595" text-anchor="middle" font-family='Helvetica, Arial, sans-serif' font-size="16" font-weight="400"  fill="#0F172A">UC-08 Simulate day / import POS CSV</text><ellipse cx="800" cy="660" rx="300" ry="27" fill="#FFFFFF" stroke="#0F766E" stroke-width="2"/><text x="800" y="665" text-anchor="middle" font-family='Helvetica, Arial, sans-serif' font-size="16" font-weight="400"  fill="#0F172A">UC-09 Generate &amp; email daily brief</text><ellipse cx="800" cy="730" rx="300" ry="27" fill="#FFFFFF" stroke="#0F766E" stroke-width="2"/><text x="800" y="735" text-anchor="middle" font-family='Helvetica, Arial, sans-serif' font-size="16" font-weight="400"  fill="#0F172A">UC-10 Follow up unresolved critical tasks</text><ellipse cx="800" cy="800" rx="300" ry="27" fill="#FFFFFF" stroke="#0F766E" stroke-width="2"/><text x="800" y="805" text-anchor="middle" font-family='Helvetica, Arial, sans-serif' font-size="16" font-weight="400"  fill="#0F172A">UC-11 Send weekly recap</text><g stroke="#1F3A5F" stroke-width="3" fill="none"><circle cx="160" cy="140" r="16"/><line x1="160" y1="156" x2="160" y2="200"/>
    <line x1="134" y1="172" x2="186" y2="172"/><line x1="160" y1="200" x2="138" y2="232"/><line x1="160" y1="200" x2="182" y2="232"/></g><text x="160" y="258" text-anchor="middle" font-family='Helvetica, Arial, sans-serif' font-size="16" font-weight="700"  fill="#0F172A">Owner / GM</text><g stroke="#1F3A5F" stroke-width="3" fill="none"><circle cx="160" cy="500" r="16"/><line x1="160" y1="516" x2="160" y2="560"/>
    <line x1="134" y1="532" x2="186" y2="532"/><line x1="160" y1="560" x2="138" y2="592"/><line x1="160" y1="560" x2="182" y2="592"/></g><text x="160" y="618" text-anchor="middle" font-family='Helvetica, Arial, sans-serif' font-size="16" font-weight="700"  fill="#0F172A">Shift Manager</text><g stroke="#1F3A5F" stroke-width="3" fill="none"><circle cx="1440" cy="640" r="16"/><line x1="1440" y1="656" x2="1440" y2="700"/>
    <line x1="1414" y1="672" x2="1466" y2="672"/><line x1="1440" y1="700" x2="1418" y2="732"/><line x1="1440" y1="700" x2="1462" y2="732"/></g><text x="1440" y="758" text-anchor="middle" font-family='Helvetica, Arial, sans-serif' font-size="16" font-weight="700"  fill="#0F172A">Cloud Scheduler</text></svg>