<svg xmlns="http://www.w3.org/2000/svg" width="1500" height="720" viewBox="0 0 1500 720"><defs>
  <marker id="arr" viewBox="0 0 10 10" refX="9" refY="5" markerWidth="8" markerHeight="8" orient="auto-start-reverse"><path d="M0,0 L10,5 L0,10 z" fill="#64748B"/></marker>
  <marker id="arrT" viewBox="0 0 10 10" refX="9" refY="5" markerWidth="8" markerHeight="8" orient="auto-start-reverse"><path d="M0,0 L10,5 L0,10 z" fill="#0F766E"/></marker>
  <marker id="open" viewBox="0 0 10 10" refX="9" refY="5" markerWidth="9" markerHeight="9" orient="auto-start-reverse"><path d="M0,0 L10,5 L0,10" fill="none" stroke="#64748B" stroke-width="1.5"/></marker>
  <marker id="tri" viewBox="0 0 12 12" refX="11" refY="6" markerWidth="12" markerHeight="12" orient="auto"><path d="M0,0 L12,6 L0,12 z" fill="#FFFFFF" stroke="#64748B" stroke-width="1.5"/></marker>
  <marker id="dia" viewBox="0 0 14 10" refX="1" refY="5" markerWidth="14" markerHeight="10" orient="auto-start-reverse"><path d="M1,5 L7,1 L13,5 L7,9 z" fill="#64748B"/></marker>
</defs><rect width="1500" height="720" fill="#FFFFFF"/><line x1="64" y1="120" x2="96" y2="120" stroke="#64748B" stroke-width="2" marker-end="url(#arr)"  /><line x1="303" y1="120" x2="377" y2="120" stroke="#64748B" stroke-width="2" marker-end="url(#arr)"  /><line x1="583" y1="120" x2="657" y2="120" stroke="#64748B" stroke-width="2" marker-end="url(#arr)"  /><rect x="589.975" y="101" width="60.050000000000004" height="19" fill="#FFFFFF" opacity="0.92"/><text x="620" y="114" text-anchor="middle" font-family='Helvetica, Arial, sans-serif' font-size="13" font-weight="400"  fill="#0F172A">invoice</text><line x1="863" y1="120" x2="937" y2="120" stroke="#64748B" stroke-width="2" marker-end="url(#arr)"  /><line x1="1143" y1="120" x2="1217" y2="120" stroke="#64748B" stroke-width="2" marker-end="url(#arr)"  /><rect x="1167.85" y="101" width="24.3" height="19" fill="#FFFFFF" opacity="0.92"/><text x="1180" y="114" text-anchor="middle" font-family='Helvetica, Arial, sans-serif' font-size="13" font-weight="400"  fill="#0F172A">ok</text><line x1="1320" y1="166" x2="1320" y2="327" stroke="#64748B" stroke-width="2" marker-end="url(#arr)"  /><rect x="1326" y="247" width="81.5" height="19" fill="#FFFFFF" opacity="0.92"/><text x="1330" y="260" text-anchor="start" font-family='Helvetica, Arial, sans-serif' font-size="13" font-weight="400"  fill="#0F172A">exceptions</text><line x1="1269.090909090909" y1="166" x2="1090.909090909091" y2="327" stroke="#64748B" stroke-width="2" marker-end="url(#arr)"  /><rect x="1127.125" y="232" width="45.75" height="19" fill="#FFFFFF" opacity="0.92"/><text x="1150" y="245" text-anchor="middle" font-family='Helvetica, Arial, sans-serif' font-size="13" font-weight="400"  fill="#0F172A">clean</text><line x1="1090.909090909091" y1="166" x2="1269.090909090909" y2="327" stroke="#64748B" stroke-width="2" marker-end="url(#arr)"  /><rect x="908.15" y="192" width="145.85000000000002" height="19" fill="#FFFFFF" opacity="0.92"/><text x="1050" y="205" text-anchor="end" font-family='Helvetica, Arial, sans-serif' font-size="13" font-weight="400"  fill="#0F172A">math / field issues</text><line x1="1217" y1="373" x2="1143" y2="373" stroke="#64748B" stroke-width="2" marker-end="url(#arr)"  /><rect x="1146.4" y="354" width="67.2" height="19" fill="#FFFFFF" opacity="0.92"/><text x="1180" y="367" text-anchor="middle" font-family='Helvetica, Arial, sans-serif' font-size="13" font-weight="400"  fill="#0F172A">resolved</text><line x1="937" y1="373" x2="863" y2="373" stroke="#64748B" stroke-width="2" marker-end="url(#arr)"  /><rect x="869.975" y="354" width="60.050000000000004" height="19" fill="#FFFFFF" opacity="0.92"/><text x="900" y="367" text-anchor="middle" font-family='Helvetica, Arial, sans-serif' font-size="13" font-weight="400"  fill="#0F172A">approve</text><line x1="657" y1="373" x2="583" y2="373" stroke="#64748B" stroke-width="2" marker-end="url(#arr)"  /><rect x="600.7" y="354" width="38.6" height="19" fill="#FFFFFF" opacity="0.92"/><text x="620" y="367" text-anchor="middle" font-family='Helvetica, Arial, sans-serif' font-size="13" font-weight="400"  fill="#0F172A">post</text><line x1="1040" y1="419" x2="1040" y2="587" stroke="#64748B" stroke-width="2" marker-end="url(#arr)"  /><rect x="1046" y="517" width="52.900000000000006" height="19" fill="#FFFFFF" opacity="0.92"/><text x="1050" y="530" text-anchor="start" font-family='Helvetica, Arial, sans-serif' font-size="13" font-weight="400"  fill="#0F172A">reject</text><line x1="1270.4615384615386" y1="419" x2="1089.5384615384614" y2="587" stroke="#64748B" stroke-width="2" marker-end="url(#arr)"  /><rect x="1173.55" y="492" width="52.900000000000006" height="19" fill="#FFFFFF" opacity="0.92"/><text x="1200" y="505" text-anchor="middle" font-family='Helvetica, Arial, sans-serif' font-size="13" font-weight="400"  fill="#0F172A">reject</text><line x1="1320" y1="419" x2="1320" y2="587" stroke="#64748B" stroke-width="2" marker-end="url(#arr)"  /><rect x="1326" y="508" width="155.20000000000002" height="18" fill="#FFFFFF" opacity="0.92"/><text x="1330" y="520" text-anchor="start" font-family='Helvetica, Arial, sans-serif' font-size="12" font-weight="400"  fill="#0F172A">errors after 3 retries</text><line x1="429.09090909090907" y1="166" x2="250.9090909090909" y2="327" stroke="#64748B" stroke-width="2" marker-end="url(#arr)"  /><rect x="245.35" y="232" width="88.65" height="19" fill="#FFFFFF" opacity="0.92"/><text x="330" y="245" text-anchor="end" font-family='Helvetica, Arial, sans-serif' font-size="13" font-weight="400"  fill="#0F172A">not invoice</text><path d="M100,140 C20,300 20,560 96,600" fill="none" stroke="#64748B" stroke-width="2" marker-end="url(#arr)" /><rect x="12.824999999999996" y="457" width="74.35000000000001" height="19" fill="#FFFFFF" opacity="0.92"/><text x="50" y="470" text-anchor="middle" font-family='Helvetica, Arial, sans-serif' font-size="13" font-weight="400"  fill="#0F172A">duplicate</text><path d="M480,165 C620,255 1150,250 1260,326" fill="none" stroke="#64748B" stroke-width="2" marker-end="url(#arr)" /><rect x="696.35" y="219" width="167.3" height="19" fill="#FFFFFF" opacity="0.92"/><text x="780" y="232" text-anchor="middle" font-family='Helvetica, Arial, sans-serif' font-size="13" font-weight="400"  fill="#0F172A">conf &lt; 0.6 / multi-doc</text><path d="M760,418 C760,505 1040,505 1040,422" fill="none" stroke="#64748B" stroke-width="2" marker-end="url(#arr)" /><rect x="827.075" y="492" width="145.85000000000002" height="19" fill="#FFFFFF" opacity="0.92"/><text x="900" y="505" text-anchor="middle" font-family='Helvetica, Arial, sans-serif' font-size="13" font-weight="400"  fill="#0F172A">edit after approval</text><line x1="480" y1="418" x2="480" y2="522" stroke="#64748B" stroke-width="2" marker-end="url(#arr)"  /><circle cx="50" cy="120" r="13" fill="#0F172A"/><rect x="100" y="77" width="200" height="86" rx="24" fill="#DAE3F3" stroke="#2F5597" stroke-width="2" /><text x="200" y="117" text-anchor="middle" font-family='Helvetica, Arial, sans-serif' font-size="17" font-weight="700"  fill="#2F5597">received</text><text x="200" y="136" text-anchor="middle" font-family='Helvetica, Arial, sans-serif' font-size="13" font-weight="400"  fill="#475569">file stored, hashed</text><rect x="380" y="77" width="200" height="86" rx="24" fill="#DAE3F3" stroke="#2F5597" stroke-width="2" /><text x="480" y="117" text-anchor="middle" font-family='Helvetica, Arial, sans-serif' font-size="17" font-weight="700"  fill="#2F5597">classifying</text><text x="480" y="136" text-anchor="middle" font-family='Helvetica, Arial, sans-serif' font-size="13" font-weight="400"  fill="#475569">Gemini classify</text><rect x="660" y="77" width="200" height="86" rx="24" fill="#DAE3F3" stroke="#2F5597" stroke-width="2" /><text x="760" y="117" text-anchor="middle" font-family='Helvetica, Arial, sans-serif' font-size="17" font-weight="700"  fill="#2F5597">extracting</text><text x="760" y="136" text-anchor="middle" font-family='Helvetica, Arial, sans-serif' font-size="13" font-weight="400"  fill="#475569">Gemini extract</text><rect x="940" y="77" width="200" height="86" rx="24" fill="#DAE3F3" stroke="#2F5597" stroke-width="2" /><text x="1040" y="117" text-anchor="middle" font-family='Helvetica, Arial, sans-serif' font-size="17" font-weight="700"  fill="#2F5597">validating</text><text x="1040" y="136" text-anchor="middle" font-family='Helvetica, Arial, sans-serif' font-size="13" font-weight="400"  fill="#475569">maths · dates · VAT</text><rect x="1220" y="77" width="200" height="86" rx="24" fill="#DAE3F3" stroke="#2F5597" stroke-width="2" /><text x="1320" y="117" text-anchor="middle" font-family='Helvetica, Arial, sans-serif' font-size="17" font-weight="700"  fill="#2F5597">matching</text><text x="1320" y="136" text-anchor="middle" font-family='Helvetica, Arial, sans-serif' font-size="13" font-weight="400"  fill="#475569">supplier · lines · prices</text><rect x="1220" y="330" width="200" height="86" rx="24" fill="#FDF3E7" stroke="#B45309" stroke-width="2" /><text x="1320" y="370" text-anchor="middle" font-family='Helvetica, Arial, sans-serif' font-size="17" font-weight="700"  fill="#B45309">needs_review</text><text x="1320" y="389" text-anchor="middle" font-family='Helvetica, Arial, sans-serif' font-size="13" font-weight="400"  fill="#475569">exceptions open</text><rect x="940" y="330" width="200" height="86" rx="24" fill="#E6F4F1" stroke="#0F766E" stroke-width="2" /><text x="1040" y="370" text-anchor="middle" font-family='Helvetica, Arial, sans-serif' font-size="17" font-weight="700"  fill="#0F766E">ready_for_approval</text><text x="1040" y="389" text-anchor="middle" font-family='Helvetica, Arial, sans-serif' font-size="13" font-weight="400"  fill="#475569">clean / resolved</text><rect x="660" y="330" width="200" height="86" rx="24" fill="#E6F4F1" stroke="#0F766E" stroke-width="2" /><text x="760" y="370" text-anchor="middle" font-family='Helvetica, Arial, sans-serif' font-size="17" font-weight="700"  fill="#0F766E">approved</text><text x="760" y="389" text-anchor="middle" font-family='Helvetica, Arial, sans-serif' font-size="13" font-weight="400"  fill="#475569">role + limit checked</text><rect x="380" y="330" width="200" height="86" rx="24" fill="#E6F4F1" stroke="#0F766E" stroke-width="2" /><text x="480" y="370" text-anchor="middle" font-family='Helvetica, Arial, sans-serif' font-size="17" font-weight="700"  fill="#0F766E">posted</text><text x="480" y="389" text-anchor="middle" font-family='Helvetica, Arial, sans-serif' font-size="13" font-weight="400"  fill="#475569">stock + prices</text><rect x="100" y="330" width="200" height="86" rx="24" fill="#F1F5F9" stroke="#475569" stroke-width="2" /><text x="200" y="370" text-anchor="middle" font-family='Helvetica, Arial, sans-serif' font-size="17" font-weight="700"  fill="#475569">not_invoice</text><text x="200" y="389" text-anchor="middle" font-family='Helvetica, Arial, sans-serif' font-size="13" font-weight="400"  fill="#475569">other document type</text><rect x="100" y="560" width="200" height="86" rx="24" fill="#F1F5F9" stroke="#475569" stroke-width="2" /><text x="200" y="600" text-anchor="middle" font-family='Helvetica, Arial, sans-serif' font-size="17" font-weight="700"  fill="#475569">duplicate</text><text x="200" y="619" text-anchor="middle" font-family='Helvetica, Arial, sans-serif' font-size="13" font-weight="400"  fill="#475569">same SHA-256 / key</text><rect x="940" y="590" width="200" height="86" rx="24" fill="#F1F5F9" stroke="#475569" stroke-width="2" /><text x="1040" y="630" text-anchor="middle" font-family='Helvetica, Arial, sans-serif' font-size="17" font-weight="700"  fill="#475569">rejected</text><text x="1040" y="649" text-anchor="middle" font-family='Helvetica, Arial, sans-serif' font-size="13" font-weight="400"  fill="#475569">reason required</text><rect x="1220" y="590" width="200" height="86" rx="24" fill="#FDECEC" stroke="#B91C1C" stroke-width="2" /><text x="1320" y="630" text-anchor="middle" font-family='Helvetica, Arial, sans-serif' font-size="17" font-weight="700"  fill="#B91C1C">failed</text><text x="1320" y="649" text-anchor="middle" font-family='Helvetica, Arial, sans-serif' font-size="13" font-weight="400"  fill="#475569">retries exhausted</text><circle cx="480" cy="540" r="15" fill="none" stroke="#0F172A" stroke-width="2.5"/><circle cx="480" cy="540" r="9" fill="#0F172A"/></svg>