<svg xmlns="http://www.w3.org/2000/svg" width="1700" height="700" viewBox="0 0 1700 700"><defs>
  <marker id="arr" viewBox="0 0 10 10" refX="9" refY="5" markerWidth="8" markerHeight="8" orient="auto-start-reverse"><path d="M0,0 L10,5 L0,10 z" fill="#64748B"/></marker>
  <marker id="arrT" viewBox="0 0 10 10" refX="9" refY="5" markerWidth="8" markerHeight="8" orient="auto-start-reverse"><path d="M0,0 L10,5 L0,10 z" fill="#0F766E"/></marker>
  <marker id="open" viewBox="0 0 10 10" refX="9" refY="5" markerWidth="9" markerHeight="9" orient="auto-start-reverse"><path d="M0,0 L10,5 L0,10" fill="none" stroke="#64748B" stroke-width="1.5"/></marker>
  <marker id="tri" viewBox="0 0 12 12" refX="11" refY="6" markerWidth="12" markerHeight="12" orient="auto"><path d="M0,0 L12,6 L0,12 z" fill="#FFFFFF" stroke="#64748B" stroke-width="1.5"/></marker>
  <marker id="dia" viewBox="0 0 14 10" refX="1" refY="5" markerWidth="14" markerHeight="10" orient="auto-start-reverse"><path d="M1,5 L7,1 L13,5 L7,9 z" fill="#64748B"/></marker>
</defs><rect width="1700" height="700" fill="#FFFFFF"/><line x1="64" y1="140" x2="96" y2="140" stroke="#64748B" stroke-width="2" marker-end="url(#arr)"  /><line x1="303" y1="140" x2="377" y2="140" stroke="#64748B" stroke-width="2" marker-end="url(#arr)"  /><rect x="309.975" y="121" width="60.050000000000004" height="19" fill="#FFFFFF" opacity="0.92"/><text x="340" y="134" text-anchor="middle" font-family='Helvetica, Arial, sans-serif' font-size="13" font-weight="400"  fill="#0F172A">publish</text><line x1="583" y1="140" x2="657" y2="140" stroke="#64748B" stroke-width="2" marker-end="url(#arr)"  /><rect x="589.975" y="121" width="60.050000000000004" height="19" fill="#FFFFFF" opacity="0.92"/><text x="620" y="134" text-anchor="middle" font-family='Helvetica, Arial, sans-serif' font-size="13" font-weight="400"  fill="#0F172A">approve</text><line x1="863" y1="140" x2="937" y2="140" stroke="#64748B" stroke-width="2" marker-end="url(#arr)"  /><line x1="1143" y1="140" x2="1217" y2="140" stroke="#64748B" stroke-width="2" marker-end="url(#arr)"  /><rect x="1149.975" y="121" width="60.050000000000004" height="19" fill="#FFFFFF" opacity="0.92"/><text x="1180" y="134" text-anchor="middle" font-family='Helvetica, Arial, sans-serif' font-size="13" font-weight="400"  fill="#0F172A">success</text><line x1="1320" y1="186" x2="1320" y2="327" stroke="#64748B" stroke-width="2" marker-end="url(#arr)"  /><line x1="1320" y1="419" x2="1320" y2="557" stroke="#64748B" stroke-width="2" marker-end="url(#arr)"  /><rect x="1326" y="492" width="67.2" height="19" fill="#FFFFFF" opacity="0.92"/><text x="1330" y="505" text-anchor="start" font-family='Helvetica, Arial, sans-serif' font-size="13" font-weight="400"  fill="#0F172A">evaluate</text><line x1="424.72103004291847" y1="186" x2="255.27896995708153" y2="327" stroke="#64748B" stroke-width="2" marker-end="url(#arr)"  /><rect x="185.35" y="252" width="88.65" height="19" fill="#FFFFFF" opacity="0.92"/><text x="270" y="265" text-anchor="end" font-family='Helvetica, Arial, sans-serif' font-size="13" font-weight="400"  fill="#0F172A">TTL elapsed</text><line x1="480" y1="186" x2="480" y2="327" stroke="#64748B" stroke-width="2" marker-end="url(#arr)"  /><rect x="486" y="252" width="52.900000000000006" height="19" fill="#FFFFFF" opacity="0.92"/><text x="490" y="265" text-anchor="start" font-family='Helvetica, Arial, sans-serif' font-size="13" font-weight="400"  fill="#0F172A">reject</text><line x1="535.2789699570816" y1="186" x2="704.7210300429184" y2="327" stroke="#64748B" stroke-width="2" marker-end="url(#arr)"  /><rect x="636" y="232" width="110.10000000000001" height="19" fill="#FFFFFF" opacity="0.92"/><text x="640" y="245" text-anchor="start" font-family='Helvetica, Arial, sans-serif' font-size="13" font-weight="400"  fill="#0F172A">newer evidence</text><line x1="1090" y1="186" x2="1090" y2="326" stroke="#64748B" stroke-width="2" marker-end="url(#arr)"  /><rect x="1096" y="253" width="135.4" height="18" fill="#FFFFFF" opacity="0.92"/><text x="1100" y="265" text-anchor="start" font-family='Helvetica, Arial, sans-serif' font-size="12" font-weight="400"  fill="#0F172A">error after retries</text><line x1="990" y1="326" x2="990" y2="188" stroke="#64748B" stroke-width="2" marker-end="url(#arr)"  /><rect x="941" y="253" width="43" height="18" fill="#FFFFFF" opacity="0.92"/><text x="980" y="265" text-anchor="end" font-family='Helvetica, Arial, sans-serif' font-size="12" font-weight="400"  fill="#0F172A">retry</text><line x1="1425" y1="603" x2="1542" y2="603" stroke="#64748B" stroke-width="2" marker-end="url(#arr)"  /><rect x="1449.3" y="576" width="69.4" height="18" fill="#FFFFFF" opacity="0.92"/><text x="1484" y="588" text-anchor="middle" font-family='Helvetica, Arial, sans-serif' font-size="12" font-weight="400"  fill="#0F172A">to memory</text><circle cx="50" cy="140" r="13" fill="#0F172A"/><rect x="100" y="97" width="200" height="86" rx="24" fill="#DAE3F3" stroke="#2F5597" stroke-width="2" /><text x="200" y="137" text-anchor="middle" font-family='Helvetica, Arial, sans-serif' font-size="17" font-weight="700"  fill="#2F5597">draft</text><text x="200" y="156" text-anchor="middle" font-family='Helvetica, Arial, sans-serif' font-size="13" font-weight="400"  fill="#475569">evidence attached</text><rect x="380" y="97" width="200" height="86" rx="24" fill="#DAE3F3" stroke="#2F5597" stroke-width="2" /><text x="480" y="137" text-anchor="middle" font-family='Helvetica, Arial, sans-serif' font-size="17" font-weight="700"  fill="#2F5597">proposed</text><text x="480" y="156" text-anchor="middle" font-family='Helvetica, Arial, sans-serif' font-size="13" font-weight="400"  fill="#475569">impact · risk · expiry</text><rect x="660" y="97" width="200" height="86" rx="24" fill="#E6F4F1" stroke="#0F766E" stroke-width="2" /><text x="760" y="137" text-anchor="middle" font-family='Helvetica, Arial, sans-serif' font-size="17" font-weight="700"  fill="#0F766E">approved</text><text x="760" y="156" text-anchor="middle" font-family='Helvetica, Arial, sans-serif' font-size="13" font-weight="400"  fill="#475569">approver recorded</text><rect x="940" y="97" width="200" height="86" rx="24" fill="#DAE3F3" stroke="#2F5597" stroke-width="2" /><text x="1040" y="137" text-anchor="middle" font-family='Helvetica, Arial, sans-serif' font-size="17" font-weight="700"  fill="#2F5597">executing</text><text x="1040" y="156" text-anchor="middle" font-family='Helvetica, Arial, sans-serif' font-size="13" font-weight="400"  fill="#475569">idempotent executor</text><rect x="1220" y="97" width="200" height="86" rx="24" fill="#E6F4F1" stroke="#0F766E" stroke-width="2" /><text x="1320" y="137" text-anchor="middle" font-family='Helvetica, Arial, sans-serif' font-size="17" font-weight="700"  fill="#0F766E">completed</text><text x="1320" y="156" text-anchor="middle" font-family='Helvetica, Arial, sans-serif' font-size="13" font-weight="400"  fill="#475569">PO / task / par</text><rect x="100" y="330" width="200" height="86" rx="24" fill="#F1F5F9" stroke="#475569" stroke-width="2" /><text x="200" y="370" text-anchor="middle" font-family='Helvetica, Arial, sans-serif' font-size="17" font-weight="700"  fill="#475569">expired</text><text x="200" y="389" text-anchor="middle" font-family='Helvetica, Arial, sans-serif' font-size="13" font-weight="400"  fill="#475569">not decided in time</text><rect x="380" y="330" width="200" height="86" rx="24" fill="#F1F5F9" stroke="#475569" stroke-width="2" /><text x="480" y="370" text-anchor="middle" font-family='Helvetica, Arial, sans-serif' font-size="17" font-weight="700"  fill="#475569">rejected</text><text x="480" y="389" text-anchor="middle" font-family='Helvetica, Arial, sans-serif' font-size="13" font-weight="400"  fill="#475569">reason captured</text><rect x="660" y="330" width="200" height="86" rx="24" fill="#F1F5F9" stroke="#475569" stroke-width="2" /><text x="760" y="370" text-anchor="middle" font-family='Helvetica, Arial, sans-serif' font-size="17" font-weight="700"  fill="#475569">superseded</text><text x="760" y="389" text-anchor="middle" font-family='Helvetica, Arial, sans-serif' font-size="13" font-weight="400"  fill="#475569">newer evidence</text><rect x="940" y="330" width="200" height="86" rx="24" fill="#FDECEC" stroke="#B91C1C" stroke-width="2" /><text x="1040" y="370" text-anchor="middle" font-family='Helvetica, Arial, sans-serif' font-size="17" font-weight="700"  fill="#B91C1C">failed</text><text x="1040" y="389" text-anchor="middle" font-family='Helvetica, Arial, sans-serif' font-size="13" font-weight="400"  fill="#475569">executor error</text><rect x="1220" y="330" width="200" height="86" rx="24" fill="#DAE3F3" stroke="#2F5597" stroke-width="2" /><text x="1320" y="370" text-anchor="middle" font-family='Helvetica, Arial, sans-serif' font-size="17" font-weight="700"  fill="#2F5597">follow_up</text><text x="1320" y="389" text-anchor="middle" font-family='Helvetica, Arial, sans-serif' font-size="13" font-weight="400"  fill="#475569">measure at +N days</text><rect x="1220" y="560" width="200" height="86" rx="24" fill="#F1EBFD" stroke="#6D28D9" stroke-width="2" /><text x="1320" y="600" text-anchor="middle" font-family='Helvetica, Arial, sans-serif' font-size="17" font-weight="700"  fill="#6D28D9">outcome_measured</text><text x="1320" y="619" text-anchor="middle" font-family='Helvetica, Arial, sans-serif' font-size="13" font-weight="400"  fill="#475569">improved · no change · worse</text><circle cx="1560" cy="603" r="15" fill="none" stroke="#0F172A" stroke-width="2.5"/><circle cx="1560" cy="603" r="9" fill="#0F172A"/></svg>