<svg xmlns="http://www.w3.org/2000/svg" width="1700" height="980" viewBox="0 0 1700 980"><defs>
  <marker id="arr" viewBox="0 0 10 10" refX="9" refY="5" markerWidth="8" markerHeight="8" orient="auto-start-reverse"><path d="M0,0 L10,5 L0,10 z" fill="#64748B"/></marker>
  <marker id="arrT" viewBox="0 0 10 10" refX="9" refY="5" markerWidth="8" markerHeight="8" orient="auto-start-reverse"><path d="M0,0 L10,5 L0,10 z" fill="#0F766E"/></marker>
  <marker id="open" viewBox="0 0 10 10" refX="9" refY="5" markerWidth="9" markerHeight="9" orient="auto-start-reverse"><path d="M0,0 L10,5 L0,10" fill="none" stroke="#64748B" stroke-width="1.5"/></marker>
  <marker id="tri" viewBox="0 0 12 12" refX="11" refY="6" markerWidth="12" markerHeight="12" orient="auto"><path d="M0,0 L12,6 L0,12 z" fill="#FFFFFF" stroke="#64748B" stroke-width="1.5"/></marker>
  <marker id="dia" viewBox="0 0 14 10" refX="1" refY="5" markerWidth="14" markerHeight="10" orient="auto-start-reverse"><path d="M1,5 L7,1 L13,5 L7,9 z" fill="#64748B"/></marker>
</defs><rect width="1700" height="980" fill="#FFFFFF"/><line x1="110" y1="74" x2="110" y2="960" stroke="#64748B" stroke-width="1.5" stroke-dasharray="5 5"/><rect x="15" y="20" width="190" height="54" rx="10" fill="#EAF0F7" stroke="#1F3A5F" stroke-width="2" /><text x="110" y="52.5" text-anchor="middle" font-family='Helvetica, Arial, sans-serif' font-size="15" font-weight="700"  fill="#1F3A5F">Head Chef</text><line x1="356.66666666666663" y1="74" x2="356.66666666666663" y2="960" stroke="#64748B" stroke-width="1.5" stroke-dasharray="5 5"/><rect x="261.66666666666663" y="20" width="190" height="54" rx="10" fill="#EAF0F7" stroke="#1F3A5F" stroke-width="2" /><text x="356.66666666666663" y="52.5" text-anchor="middle" font-family='Helvetica, Arial, sans-serif' font-size="15" font-weight="700"  fill="#1F3A5F">api</text><line x1="603.3333333333333" y1="74" x2="603.3333333333333" y2="960" stroke="#64748B" stroke-width="1.5" stroke-dasharray="5 5"/><rect x="508.33333333333326" y="20" width="190" height="54" rx="10" fill="#EAF0F7" stroke="#1F3A5F" stroke-width="2" /><text x="603.3333333333333" y="52.5" text-anchor="middle" font-family='Helvetica, Arial, sans-serif' font-size="15" font-weight="700"  fill="#1F3A5F">Storage</text><line x1="850" y1="74" x2="850" y2="960" stroke="#64748B" stroke-width="1.5" stroke-dasharray="5 5"/><rect x="755" y="20" width="190" height="54" rx="10" fill="#EAF0F7" stroke="#1F3A5F" stroke-width="2" /><text x="850" y="52.5" text-anchor="middle" font-family='Helvetica, Arial, sans-serif' font-size="15" font-weight="700"  fill="#1F3A5F">worker</text><line x1="1096.6666666666665" y1="74" x2="1096.6666666666665" y2="960" stroke="#64748B" stroke-width="1.5" stroke-dasharray="5 5"/><rect x="1001.6666666666665" y="20" width="190" height="54" rx="10" fill="#FDF3E7" stroke="#B45309" stroke-width="2" /><text x="1096.6666666666665" y="52.5" text-anchor="middle" font-family='Helvetica, Arial, sans-serif' font-size="15" font-weight="700"  fill="#B45309">Gemini</text><line x1="1343.3333333333333" y1="74" x2="1343.3333333333333" y2="960" stroke="#64748B" stroke-width="1.5" stroke-dasharray="5 5"/><rect x="1248.3333333333333" y="20" width="190" height="54" rx="10" fill="#EAF0F7" stroke="#1F3A5F" stroke-width="2" /><text x="1343.3333333333333" y="52.5" text-anchor="middle" font-family='Helvetica, Arial, sans-serif' font-size="15" font-weight="700"  fill="#1F3A5F">Validator + matchers</text><line x1="1590" y1="74" x2="1590" y2="960" stroke="#64748B" stroke-width="1.5" stroke-dasharray="5 5"/><rect x="1495" y="20" width="190" height="54" rx="10" fill="#EAF0F7" stroke="#1F3A5F" stroke-width="2" /><text x="1590" y="52.5" text-anchor="middle" font-family='Helvetica, Arial, sans-serif' font-size="15" font-weight="700"  fill="#1F3A5F">PostgreSQL</text><line x1="110" y1="120" x2="352.66666666666663" y2="120" stroke="#0F766E" stroke-width="2" marker-end="url(#arrT)"  /><rect x="70.48333333333329" y="98" width="325.70000000000005" height="20" fill="#FFFFFF" opacity="0.92"/><text x="233.33333333333331" y="112" text-anchor="middle" font-family='Helvetica, Arial, sans-serif' font-size="14" font-weight="400"  fill="#0F172A">1. POST /invoices (file, Idempotency-Key)</text><path d="M356.66666666666663,168 h40 v22 h-36" fill="none" stroke="#0F766E" stroke-width="2" marker-end="url(#arrT)"/><rect x="402.66666666666663" y="169" width="241.00000000000003" height="20" fill="#FFFFFF" opacity="0.92"/><text x="406.66666666666663" y="183" text-anchor="start" font-family='Helvetica, Arial, sans-serif' font-size="14" font-weight="400"  fill="#0F172A">2. sniff MIME · size · SHA-256</text><line x1="356.66666666666663" y1="224" x2="1586" y2="224" stroke="#0F766E" stroke-width="2" marker-end="url(#arrT)"  /><rect x="825.8833333333332" y="202" width="294.90000000000003" height="20" fill="#FFFFFF" opacity="0.92"/><text x="973.3333333333333" y="216" text-anchor="middle" font-family='Helvetica, Arial, sans-serif' font-size="14" font-weight="400"  fill="#0F172A">3. exact duplicate? → state=duplicate</text><line x1="356.66666666666663" y1="272" x2="599.3333333333333" y2="272" stroke="#0F766E" stroke-width="2" marker-end="url(#arrT)"  /><rect x="378.74999999999994" y="250" width="202.50000000000003" height="20" fill="#FFFFFF" opacity="0.92"/><text x="479.99999999999994" y="264" text-anchor="middle" font-family='Helvetica, Arial, sans-serif' font-size="14" font-weight="400"  fill="#0F172A">4. put original (private)</text><line x1="356.66666666666663" y1="320" x2="1586" y2="320" stroke="#0F766E" stroke-width="2" marker-end="url(#arrT)"  /><rect x="802.7833333333333" y="298" width="341.1" height="20" fill="#FFFFFF" opacity="0.92"/><text x="973.3333333333333" y="312" text-anchor="middle" font-family='Helvetica, Arial, sans-serif' font-size="14" font-weight="400"  fill="#0F172A">5. InvoiceDocument(received) + job enqueued</text><line x1="356.66666666666663" y1="368" x2="114" y2="368" stroke="#64748B" stroke-width="2" marker-end="url(#arr)"  stroke-dasharray='6 5'/><rect x="116.68333333333331" y="346" width="233.3" height="20" fill="#FFFFFF" opacity="0.92"/><text x="233.33333333333331" y="360" text-anchor="middle" font-family='Helvetica, Arial, sans-serif' font-size="14" font-weight="400"  fill="#0F172A">6. 202 Accepted {document_id}</text><line x1="850" y1="416" x2="1092.6666666666665" y2="416" stroke="#0F766E" stroke-width="2" marker-end="url(#arrT)"  /><rect x="791.2333333333332" y="394" width="364.20000000000005" height="20" fill="#FFFFFF" opacity="0.92"/><text x="973.3333333333333" y="408" text-anchor="middle" font-family='Helvetica, Arial, sans-serif' font-size="14" font-weight="400"  fill="#0F172A">7. classify(doc) → type, confidence, multi_doc</text><rect x="780" y="434" width="633.3333333333333" height="20" fill="none" stroke="#475569" stroke-width="1.5"/><rect x="780" y="434" width="49" height="22" fill="#F1F5F9" stroke="#475569"/><text x="788" y="450" text-anchor="start" font-family='Helvetica, Arial, sans-serif' font-size="13" font-weight="700"  fill="#0F172A">alt</text><text x="839" y="450" text-anchor="start" font-family='Helvetica, Arial, sans-serif' font-size="13" font-weight="400" font-style='italic' fill="#475569">[not invoice · conf &lt; 0.6 · multi-doc] → not_invoice / needs_review</text><line x1="850" y1="490" x2="1092.6666666666665" y2="490" stroke="#0F766E" stroke-width="2" marker-end="url(#arrT)"  /><rect x="814.3333333333333" y="468" width="318" height="20" fill="#FFFFFF" opacity="0.92"/><text x="973.3333333333333" y="482" text-anchor="middle" font-family='Helvetica, Arial, sans-serif' font-size="14" font-weight="400"  fill="#0F172A">8. extract(doc, schema) → header + lines</text><line x1="850" y1="538" x2="1339.3333333333333" y2="538" stroke="#0F766E" stroke-width="2" marker-end="url(#arrT)"  /><rect x="910.7166666666665" y="516" width="371.90000000000003" height="20" fill="#FFFFFF" opacity="0.92"/><text x="1096.6666666666665" y="530" text-anchor="middle" font-family='Helvetica, Arial, sans-serif' font-size="14" font-weight="400"  fill="#0F172A">9. validate maths, dates, VAT; recompute totals</text><line x1="850" y1="586" x2="1339.3333333333333" y2="586" stroke="#0F766E" stroke-width="2" marker-end="url(#arrT)"  /><rect x="910.7166666666665" y="564" width="371.90000000000003" height="20" fill="#FFFFFF" opacity="0.92"/><text x="1096.6666666666665" y="578" text-anchor="middle" font-family='Helvetica, Arial, sans-serif' font-size="14" font-weight="400"  fill="#0F172A">10. match supplier · lines · price history · PO</text><line x1="850" y1="634" x2="1339.3333333333333" y2="634" stroke="#0F766E" stroke-width="2" marker-end="url(#arrT)"  /><rect x="995.4166666666665" y="612" width="202.50000000000003" height="20" fill="#FFFFFF" opacity="0.92"/><text x="1096.6666666666665" y="626" text-anchor="middle" font-family='Helvetica, Arial, sans-serif' font-size="14" font-weight="400"  fill="#0F172A">11. fuzzy duplicate check</text><line x1="850" y1="682" x2="1586" y2="682" stroke="#0F766E" stroke-width="2" marker-end="url(#arrT)"  /><rect x="1064.85" y="660" width="310.3" height="20" fill="#FFFFFF" opacity="0.92"/><text x="1220" y="674" text-anchor="middle" font-family='Helvetica, Arial, sans-serif' font-size="14" font-weight="400"  fill="#0F172A">12. Invoice + lines + exceptions; state</text><line x1="850" y1="730" x2="1586" y2="730" stroke="#0F766E" stroke-width="2" marker-end="url(#arrT)"  /><rect x="1064.85" y="708" width="310.3" height="20" fill="#FFFFFF" opacity="0.92"/><text x="1220" y="722" text-anchor="middle" font-family='Helvetica, Arial, sans-serif' font-size="14" font-weight="400"  fill="#0F172A">13. audit_event + outbox(invoice.ready)</text><line x1="110" y1="778" x2="352.66666666666663" y2="778" stroke="#0F766E" stroke-width="2" marker-end="url(#arrT)"  /><rect x="108.9833333333333" y="756" width="248.70000000000002" height="20" fill="#FFFFFF" opacity="0.92"/><text x="233.33333333333331" y="770" text-anchor="middle" font-family='Helvetica, Arial, sans-serif' font-size="14" font-weight="400"  fill="#0F172A">14. review exceptions · approve</text><line x1="356.66666666666663" y1="826" x2="1586" y2="826" stroke="#0F766E" stroke-width="2" marker-end="url(#arrT)"  /><rect x="806.6333333333332" y="804" width="333.40000000000003" height="20" fill="#FFFFFF" opacity="0.92"/><text x="973.3333333333333" y="818" text-anchor="middle" font-family='Helvetica, Arial, sans-serif' font-size="14" font-weight="400"  fill="#0F172A">15. receipt movements + price observations</text></svg>